<svg width="25" height="25" viewBox="0 0 32 32" fill="none" xmlns="http://www.w3.org/2000/svg">
<g clip-path="url(#clip0_756_2062)">
<path fill-rule="evenodd" clip-rule="evenodd" d="M32 16.001C32 24.659 25.123 31.7109 16.5333 31.9922V29.4579C23.8971 29.4579 29.8667 23.433 29.8667 16.001C29.8667 8.56894 23.8971 2.54408 16.5333 2.54408V0.00976562C25.123 0.291091 32 7.34293 32 16.001ZM14.0136 0.123135C13.2613 0.216295 12.5251 0.361684 11.8089 0.555561V2.54408H14.0136V0.123135ZM14.0136 29.4579V31.8788C13.2613 31.7857 12.5251 31.6403 11.8089 31.4464V29.4579H14.0136ZM9.28924 1.47214C8.61308 1.78497 7.96246 2.14361 7.34134 2.54408H9.28924V1.47214ZM0 16.001C0 22.441 3.80485 27.9924 9.28924 30.5298L9.28924 29.4579V23.3196H3.2V8.79571H16.7C18.7885 8.79571 20.7679 9.72828 22.0976 11.3387H5.71969V20.7618H16.8739C18.9492 20.7496 20.6827 19.2265 21.1399 17.2725H9.28924V14.7295H23.7774V16.2461C23.7774 20.0925 20.685 23.2973 16.8739 23.3196H11.8089V26.9148H16.5333C22.5055 26.9148 27.347 22.0285 27.347 16.001C27.347 9.97342 22.5055 5.08712 16.5333 5.08712H4.30006C1.63245 7.94561 0 11.7827 0 16.001Z" fill="#EFB325"/>
</g>
<defs>
<clipPath id="clip0_756_2062">
<rect width="32" height="32" fill="white"/>
</clipPath>
</defs>
</svg>
